<svg width="24" height="24" viewBox="0 0 24 24" fill="none" xmlns="http://www.w3.org/2000/svg">
<path d="M18.5556 1H21C22.1046 1 23 1.89543 23 3V5.44444M18.5556 21H21C22.1046 21 23 20.1046 23 19V16.5556M7.44444 1H5C3.89543 1 3 1.89543 3 3V5.44444M7.44444 21H5C3.89543 21 3 20.1046 3 19V16.5556" stroke="white" stroke-width="2" stroke-linecap="round"/>
<path d="M16.7505 12V11H16.7505L16.7505 12ZM19.438 13.9141L20.3583 13.5228L20.3583 13.5228L19.438 13.9141ZM14.8834 15L14.8832 16H14.8834V15ZM14.8199 14.9961L14.7506 13.9985L14.7568 15.9941L14.8199 14.9961ZM15.5826 14.0176L16.5377 13.7214L16.5377 13.7214L15.5826 14.0176ZM14.8326 12.7529L14.1345 12.0369L13.3982 12.7548L14.1364 13.4708L14.8326 12.7529ZM16.7505 12V13C17.7248 13 18.2236 13.6134 18.5178 14.3053L19.438 13.9141L20.3583 13.5228C19.9222 12.4971 18.89 11 16.7505 11V12ZM19.438 13.9141L18.5178 14.3053C18.5067 14.2792 18.4957 14.2306 18.5045 14.1711C18.5128 14.1146 18.5353 14.0723 18.5561 14.0459C18.5946 13.997 18.6255 14 18.6177 14V15V16C19.2114 16 19.7702 15.7368 20.1273 15.2833C20.4988 14.8117 20.6273 14.1556 20.3583 13.5228L19.438 13.9141ZM18.6177 15V14H14.8834V15V16H18.6177V15ZM14.8834 15L14.8836 14C14.8981 14 14.9095 14.0004 14.9167 14.0008C14.9204 14.001 14.9233 14.0012 14.9251 14.0013C14.926 14.0013 14.9267 14.0014 14.9272 14.0014C14.9274 14.0014 14.9276 14.0014 14.9277 14.0015C14.9278 14.0015 14.9278 14.0015 14.9278 14.0015C14.9279 14.0015 14.9279 14.0015 14.9279 14.0015C14.9279 14.0015 14.9279 14.0015 14.9278 14.0015C14.9278 14.0015 14.9278 14.0015 14.9277 14.0015C14.9276 14.0014 14.9274 14.0014 14.9272 14.0014C14.9267 14.0014 14.9261 14.0013 14.9251 14.0012C14.9241 14.0012 14.9231 14.0011 14.9216 14.001C14.9203 14.0008 14.9185 14.0007 14.9167 14.0006C14.9099 14 14.8974 13.999 14.883 13.9981L14.8199 14.9961L14.7568 15.9941C14.7528 15.9939 14.7509 15.9937 14.7546 15.994C14.7554 15.994 14.7667 15.995 14.7751 15.9956C14.7942 15.9971 14.8344 16 14.8832 16L14.8834 15ZM14.8199 14.9961L14.8892 15.9937C15.4037 15.9579 15.8955 15.7217 16.2275 15.3175C16.5736 14.8961 16.7214 14.3139 16.5377 13.7214L15.5826 14.0176L14.6274 14.3138C14.6176 14.282 14.6116 14.2316 14.6238 14.1735C14.6355 14.1178 14.6595 14.0754 14.682 14.0481C14.7037 14.0217 14.7233 14.0094 14.7336 14.0043C14.7443 13.999 14.7503 13.9985 14.7506 13.9985L14.8199 14.9961ZM15.5826 14.0176L16.5377 13.7214C16.3768 13.2025 16.0788 12.5686 15.5288 12.0351L14.8326 12.7529L14.1364 13.4708C14.377 13.7042 14.5329 14.0088 14.6275 14.3138L15.5826 14.0176ZM14.8326 12.7529L15.5307 13.4689C15.8017 13.2047 16.1736 13 16.7506 13L16.7505 12L16.7505 11C15.6112 11.0001 14.7488 11.4379 14.1345 12.0369L14.8326 12.7529Z" fill="white"/>
<path d="M8.75098 12L8.75105 11H8.75098V12ZM10.668 12.7529L11.3644 13.4706L12.1023 12.7545L11.3659 12.0368L10.668 12.7529ZM9.91895 14.0176L8.96383 13.7213L8.96381 13.7214L9.91895 14.0176ZM10.6807 14.9961L10.7428 15.9942L10.7509 13.9986L10.6807 14.9961ZM10.6182 15V16H10.6184L10.6182 15ZM6.06348 13.9141L5.14321 13.5228L5.14319 13.5228L6.06348 13.9141ZM8.75098 12L8.75091 13C9.32708 13 9.69857 13.2045 9.97003 13.4691L10.668 12.7529L11.3659 12.0368C10.752 11.4385 9.89049 11.0001 8.75105 11L8.75098 12ZM10.668 12.7529L9.97156 12.0353C9.42141 12.5692 9.12438 13.2037 8.96383 13.7213L9.91895 14.0176L10.8741 14.3138C10.9689 14.0079 11.1244 13.7034 11.3644 13.4706L10.668 12.7529ZM9.91895 14.0176L8.96381 13.7214C8.78023 14.3134 8.92767 14.8953 9.27335 15.3167C9.60493 15.7209 10.0962 15.9574 10.6104 15.9936L10.6807 14.9961L10.7509 13.9986C10.7513 13.9986 10.7573 13.999 10.768 14.0044C10.7783 14.0096 10.798 14.0218 10.8197 14.0483C10.8421 14.0757 10.8661 14.118 10.8778 14.1737C10.8899 14.2317 10.8839 14.282 10.8741 14.3138L9.91895 14.0176ZM10.6807 14.9961L10.6185 13.998C10.6034 13.999 10.5904 14 10.5832 14.0006C10.58 14.0009 10.5756 14.0012 10.5744 14.0013C10.5734 14.0014 10.5727 14.0015 10.5722 14.0015C10.572 14.0015 10.5718 14.0016 10.5717 14.0016C10.5716 14.0016 10.5716 14.0016 10.5715 14.0016C10.5715 14.0016 10.5715 14.0016 10.5715 14.0016C10.5715 14.0016 10.5715 14.0016 10.5715 14.0016C10.5716 14.0016 10.5716 14.0016 10.5717 14.0016C10.5718 14.0016 10.572 14.0015 10.5722 14.0015C10.5727 14.0015 10.5734 14.0014 10.5744 14.0014C10.5763 14.0012 10.5793 14.0011 10.5832 14.0009C10.5907 14.0005 10.6028 14 10.6179 14L10.6182 15L10.6184 16C10.6681 16 10.709 15.9969 10.7276 15.9955C10.7327 15.9951 10.7372 15.9947 10.7403 15.9944C10.7443 15.9941 10.7451 15.994 10.7471 15.9939C10.7502 15.9936 10.7476 15.9939 10.7428 15.9942L10.6807 14.9961ZM10.6182 15V14H6.88379V15V16H10.6182V15ZM6.88379 15V14C6.87599 14 6.90694 13.997 6.94545 14.0459C6.9662 14.0723 6.9887 14.1146 6.99704 14.1711C7.00584 14.2306 6.99486 14.2792 6.98377 14.3053L6.06348 13.9141L5.14319 13.5228C4.8742 14.1556 5.00276 14.8117 5.37419 15.2833C5.73132 15.7368 6.29009 16 6.88379 16V15ZM6.06348 13.9141L6.98375 14.3053C7.27794 13.6134 7.77675 13 8.75098 13V12V11C6.61154 11 5.57929 12.4971 5.14321 13.5228L6.06348 13.9141Z" fill="white"/>
<path d="M12.7507 12C14.6024 12 15.3112 13.1429 15.5825 14.0178C15.746 14.5453 15.303 15 14.7507 15H10.7507C10.1984 15 9.75542 14.5453 9.91899 14.0178C10.1903 13.1429 10.8991 12 12.7507 12Z" stroke="white" stroke-width="2" stroke-linecap="round"/>
<circle cx="12.7507" cy="8" r="2" fill="white"/>
<circle cx="16.7507" cy="8" r="2" fill="white"/>
<circle cx="8.75073" cy="8" r="2" fill="white"/>
</svg>
