<svg width="25" height="25" viewBox="0 0 25 25" fill="none" xmlns="http://www.w3.org/2000/svg">
<path d="M12.9609 1V0V1ZM14.0879 1.12988L14.5809 0.259852L14.5808 0.259822L14.0879 1.12988ZM14.4121 1.42285L15.229 0.846026L15.2289 0.845931L14.4121 1.42285ZM14.6533 2.53223L13.6583 2.63155L14.6533 2.53223ZM15.1211 4.4873L14.4649 5.24187L14.465 5.24196L15.1211 4.4873ZM15.708 4.72949L15.638 5.72704L15.6385 5.72708L15.708 4.72949ZM17.4229 3.67871L16.7897 2.90464V2.90464L17.4229 3.67871ZM18.3779 3.06543L18.2089 2.07981L18.2089 2.07982L18.3779 3.06543ZM18.8135 3.08691L19.0799 2.12307L19.0799 2.12305L18.8135 3.08691ZM19.7031 3.79297L18.996 4.50008L19.7031 3.79297ZM20.707 4.79688L19.9999 5.50398L20.707 4.79688ZM21.4131 5.68652L22.377 5.4203L22.3769 5.41998L21.4131 5.68652ZM21.4346 6.12207L22.4201 6.2915L22.4202 6.29126L21.4346 6.12207ZM20.8213 7.07715L21.5952 7.71048L20.8213 7.07715ZM19.7695 8.79199L18.772 8.862L18.772 8.86225L19.7695 8.79199ZM20.0127 9.37793L19.2577 10.0337L19.2584 10.0345L20.0127 9.37793ZM21.9678 9.84668L21.8683 10.8417L21.9678 9.84668ZM23.0771 10.0889L23.6545 9.2724L23.6544 9.27228L23.0771 10.0889ZM23.3701 10.4121L24.2403 9.91934L24.2401 9.919L23.3701 10.4121ZM23.5 11.5391H24.5H23.5ZM23.5 12.9609H24.5H23.5ZM23.3701 14.0879L24.2401 14.5809L24.2402 14.5807L23.3701 14.0879ZM23.0771 14.4121L23.654 15.229L23.654 15.229L23.0771 14.4121ZM21.9688 14.6533L22.0681 15.6484L21.9688 14.6533ZM20.0137 15.1211L19.2595 14.4644L19.2591 14.4649L20.0137 15.1211ZM19.7705 15.708L18.7729 15.6382L18.7729 15.6384L19.7705 15.708ZM20.8213 17.4219L20.0473 18.0551L20.8213 17.4219ZM21.4346 18.377L22.4201 18.2077L22.4201 18.2075L21.4346 18.377ZM21.4131 18.8125L22.3769 19.0791L22.377 19.0788L21.4131 18.8125ZM20.708 19.7012L20.0008 18.9942L20.0006 18.9944L20.708 19.7012ZM19.7031 20.707L20.4103 21.414L20.4106 21.4138L19.7031 20.707ZM18.8135 21.4131L19.0799 22.3769L19.08 22.3769L18.8135 21.4131ZM18.3779 21.4346L18.2088 22.4202L18.2089 22.4202L18.3779 21.4346ZM17.4229 20.8213L16.7896 21.5953L17.4229 20.8213ZM15.708 19.7695L15.6386 18.7719L15.638 18.772L15.708 19.7695ZM15.1221 20.0127L14.4662 19.2579L14.4661 19.2579L15.1221 20.0127ZM14.6533 21.9678L13.6583 21.8685L14.6533 21.9678ZM14.4111 23.0771L15.2277 23.6545L15.2279 23.6541L14.4111 23.0771ZM14.0879 23.3701L14.5809 24.2401L14.5809 24.2401L14.0879 23.3701ZM12.9609 23.5V24.5V23.5ZM11.5391 23.5V24.5V23.5ZM10.4121 23.3701L9.91897 24.2401L9.91957 24.2404L10.4121 23.3701ZM10.0879 23.0771L9.27105 23.654L9.27146 23.6546L10.0879 23.0771ZM9.84668 21.9678L10.8417 21.868L9.84668 21.9678ZM9.37695 20.0127L10.0327 19.2577L10.0327 19.2577L9.37695 20.0127ZM8.79102 19.7705L8.86091 18.773L8.86082 18.7729L8.79102 19.7705ZM7.07715 20.8213L7.71045 21.5952L7.07715 20.8213ZM6.12207 21.4346L6.29124 22.4202L6.29157 22.4201L6.12207 21.4346ZM5.68652 21.4131L5.41988 22.3769L5.42028 22.377L5.68652 21.4131ZM4.79688 20.707L4.08977 21.4141L4.79688 20.707ZM3.79297 19.7031L4.50008 18.996L3.79297 19.7031ZM3.08691 18.8135L2.12305 19.0799L2.12307 19.0799L3.08691 18.8135ZM3.06543 18.3779L2.07982 18.2089L2.07981 18.2089L3.06543 18.3779ZM3.67871 17.4229L2.90464 16.7897L3.67871 17.4229ZM4.72949 15.708L5.72708 15.6385L5.72704 15.638L4.72949 15.708ZM4.4873 15.1211L5.24196 14.465L5.24187 14.4649L4.4873 15.1211ZM2.53223 14.6533L2.63155 13.6583L2.53223 14.6533ZM1.42285 14.4121L0.845931 15.2289L0.846026 15.229L1.42285 14.4121ZM1.12988 14.0879L0.259822 14.5808L0.259852 14.5809L1.12988 14.0879ZM1 12.9609H0H1ZM1 11.5391H0H1ZM1.12988 10.4121L0.259878 9.91907L0.259728 9.91933L1.12988 10.4121ZM1.42285 10.0879L0.84601 9.27103L0.845669 9.27128L1.42285 10.0879ZM2.53125 9.84668L2.43173 8.85164L2.53125 9.84668ZM4.4873 9.37793L5.242 10.034L5.24226 10.0337L4.4873 9.37793ZM4.72949 8.79199L5.72702 8.86227L5.72703 8.86215L4.72949 8.79199ZM3.67871 7.07715L2.90473 7.71035L3.67871 7.07715ZM3.06543 6.12207L2.07985 6.29129L2.07985 6.2913L3.06543 6.12207ZM3.08691 5.68652L2.12304 5.42017L2.12301 5.42026L3.08691 5.68652ZM3.79199 4.79688L3.08489 4.08977L3.08478 4.08988L3.79199 4.79688ZM4.79688 3.79199L5.50398 4.4991L5.50409 4.49899L4.79688 3.79199ZM5.68652 3.08594L5.4201 2.12208L5.41987 2.12214L5.68652 3.08594ZM6.12207 3.06445L6.2913 2.07888L6.29105 2.07883L6.12207 3.06445ZM7.07715 3.67773L7.71035 2.90375L7.07715 3.67773ZM8.79199 4.72852L8.86181 5.72608L8.86224 5.72605L8.79199 4.72852ZM9.37793 4.48633L10.0339 5.24113L10.0339 5.24108L9.37793 4.48633ZM9.84668 2.53125L8.85165 2.43171L9.84668 2.53125ZM10.0879 1.42285L9.27115 0.845845L9.2711 0.845925L10.0879 1.42285ZM10.4121 1.12988L9.91927 0.259762L9.91927 0.259764L10.4121 1.12988ZM12.9609 1V2C13.2785 2 13.4497 2.00096 13.5721 2.0121C13.6791 2.02185 13.6533 2.033 13.5949 1.99994L14.0879 1.12988L14.5808 0.259822C14.2932 0.096849 14.003 0.0430627 13.7535 0.020342C13.5194 -0.000972509 13.2417 0 12.9609 0V1ZM14.0879 1.12988L13.5949 1.99991L13.5953 1.99977L14.4121 1.42285L15.2289 0.845931C15.0578 0.603736 14.8358 0.404269 14.5809 0.259852L14.0879 1.12988ZM14.4121 1.42285L13.5952 1.99968C13.5564 1.94473 13.5651 1.91793 13.5855 2.02393C13.6087 2.14495 13.6267 2.3155 13.6583 2.63155L14.6533 2.53223L15.6484 2.43291C15.6205 2.15342 15.5939 1.87693 15.5494 1.64597C15.5021 1.4 15.4198 1.11628 15.229 0.846026L14.4121 1.42285ZM14.6533 2.53223L13.6583 2.63155C13.7123 3.17269 13.7593 3.65973 13.8381 4.03897C13.9149 4.40889 14.0594 4.88922 14.4649 5.24187L15.1211 4.4873L15.7773 3.73274C15.8834 3.825 15.8503 3.89249 15.7963 3.63231C15.7442 3.38146 15.7071 3.02117 15.6484 2.43291L14.6533 2.53223ZM15.1211 4.4873L14.465 5.24196C14.795 5.52889 15.208 5.69685 15.638 5.72704L15.708 4.72949L15.778 3.73195C15.7749 3.73173 15.7748 3.73058 15.7772 3.73264L15.1211 4.4873ZM15.708 4.72949L15.6385 5.72708C16.1737 5.76435 16.6153 5.52793 16.9318 5.32078C17.2563 5.10842 17.6344 4.79759 18.056 4.45278L17.4229 3.67871L16.7897 2.90464C16.3323 3.27875 16.0509 3.5071 15.8367 3.64729C15.6145 3.79269 15.6381 3.7222 15.7775 3.73191L15.708 4.72949ZM17.4229 3.67871L18.056 4.45278C18.302 4.25157 18.4352 4.14385 18.5371 4.07489C18.6261 4.01464 18.6132 4.03969 18.547 4.05104L18.3779 3.06543L18.2089 2.07982C17.8828 2.13575 17.624 2.2779 17.4164 2.41838C17.2216 2.55015 17.0072 2.72678 16.7897 2.90464L17.4229 3.67871ZM18.3779 3.06543L18.5469 4.05105L18.5471 4.05078L18.8135 3.08691L19.0799 2.12305C18.7951 2.04435 18.4976 2.03032 18.2089 2.07981L18.3779 3.06543ZM18.8135 3.08691L18.547 4.05076C18.482 4.03278 18.4716 4.00646 18.5545 4.07562C18.6493 4.15461 18.7712 4.27526 18.996 4.50008L19.7031 3.79297L20.4102 3.08586C20.2116 2.88726 20.0158 2.69002 19.8352 2.53941C19.6427 2.37897 19.3992 2.21132 19.0799 2.12307L18.8135 3.08691ZM19.7031 3.79297L18.996 4.50008L19.9999 5.50398L20.707 4.79688L21.4141 4.08977L20.4102 3.08586L19.7031 3.79297ZM20.707 4.79688L19.9999 5.50398C20.2247 5.72872 20.3453 5.85069 20.4243 5.94546C20.4936 6.0285 20.4673 6.01811 20.4493 5.95306L21.4131 5.68652L22.3769 5.41998C22.2886 5.10081 22.121 4.85727 21.9606 4.66485C21.81 4.48417 21.6127 4.28837 21.4141 4.08977L20.707 4.79688ZM21.4131 5.68652L20.4492 5.95275L20.449 5.95288L21.4346 6.12207L22.4202 6.29126C22.4698 6.00223 22.4556 5.70473 22.377 5.4203L21.4131 5.68652ZM21.4346 6.12207L20.449 5.95264C20.4603 5.88682 20.4852 5.87411 20.425 5.96314C20.3561 6.06495 20.2484 6.19821 20.0474 6.44382L20.8213 7.07715L21.5952 7.71048C21.7733 7.49288 21.9498 7.27851 22.0817 7.08353C22.2222 6.87579 22.3641 6.61715 22.4201 6.2915L21.4346 6.12207ZM20.8213 7.07715L20.0474 6.44382C19.7026 6.86521 19.3914 7.24323 19.1788 7.56757C18.9715 7.88395 18.7344 8.32596 18.772 8.862L19.7695 8.79199L20.7671 8.72199C20.7769 8.86196 20.706 8.88606 20.8516 8.66379C20.9921 8.44949 21.2206 8.16812 21.5952 7.71048L20.8213 7.07715ZM19.7695 8.79199L18.772 8.86225C18.8026 9.29613 18.9742 9.70724 19.2577 10.0337L20.0127 9.37793L20.7676 8.72215L20.7671 8.72174L19.7695 8.79199ZM20.0127 9.37793L19.2584 10.0345C19.6107 10.4392 20.0901 10.584 20.4603 10.6611C20.8397 10.7402 21.3267 10.7876 21.8683 10.8417L21.9678 9.84668L22.0673 8.85164C21.4793 8.79285 21.119 8.75546 20.8684 8.70322C20.6086 8.64907 20.6752 8.61597 20.767 8.72137L20.0127 9.37793ZM21.9678 9.84668L21.8683 10.8417C22.184 10.8733 22.3545 10.8914 22.475 10.9148C22.5805 10.9352 22.5542 10.9438 22.4999 10.9055L23.0771 10.0889L23.6544 9.27228C23.3847 9.08169 23.1017 8.99899 22.8553 8.95128C22.6239 8.90648 22.3474 8.87966 22.0673 8.85164L21.9678 9.84668ZM23.0771 10.0889L22.4998 10.9053L22.5001 10.9052L23.3701 10.4121L24.2401 9.919C24.0941 9.66151 23.8934 9.4413 23.6545 9.2724L23.0771 10.0889ZM23.3701 10.4121L22.5 10.9049C22.467 10.8466 22.4781 10.8209 22.4879 10.9279C22.499 11.0504 22.5 11.2216 22.5 11.5391H23.5H24.5C24.5 11.2582 24.501 10.9806 24.4796 10.7465C24.4569 10.497 24.4031 10.2069 24.2403 9.91934L23.3701 10.4121ZM23.5 11.5391H22.5V12.9609H23.5H24.5V11.5391H23.5ZM23.5 12.9609H22.5C22.5 13.2784 22.499 13.4496 22.4879 13.5721C22.4781 13.6792 22.467 13.6534 22.5 13.5951L23.3701 14.0879L24.2402 14.5807C24.4031 14.2931 24.4569 14.003 24.4796 13.7535C24.501 13.5194 24.5 13.2418 24.5 12.9609H23.5ZM23.3701 14.0879L22.5001 13.5949L22.5003 13.5953L23.0771 14.4121L23.654 15.229C23.8963 15.0578 24.0957 14.8357 24.2401 14.5809L23.3701 14.0879ZM23.0771 14.4121L22.5003 13.5952C22.5551 13.5566 22.5818 13.5652 22.4762 13.5855C22.3555 13.6088 22.1852 13.6267 21.8694 13.6583L21.9688 14.6533L22.0681 15.6484C22.3475 15.6205 22.6238 15.5939 22.8547 15.5494C23.1007 15.5019 23.384 15.4196 23.654 15.229L23.0771 14.4121ZM21.9688 14.6533L21.8694 13.6583C21.3282 13.7123 20.8412 13.7594 20.462 13.8382C20.0921 13.915 19.6121 14.0595 19.2595 14.4644L20.0137 15.1211L20.7678 15.7778C20.6757 15.8835 20.6087 15.8504 20.8688 15.7964C21.1197 15.7443 21.48 15.7071 22.0681 15.6484L21.9688 14.6533ZM20.0137 15.1211L19.2591 14.4649C18.974 14.7927 18.8032 15.2049 18.7729 15.6382L19.7705 15.708L20.7681 15.7778L20.7682 15.7773L20.0137 15.1211ZM19.7705 15.708L18.7729 15.6384C18.7356 16.1739 18.9722 16.6154 19.1794 16.9318C19.3918 17.256 19.7026 17.6338 20.0473 18.0551L20.8213 17.4219L21.5953 16.7887C21.2211 16.3313 20.9927 16.0501 20.8525 15.8359C20.7071 15.614 20.7778 15.6379 20.7681 15.7776L19.7705 15.708ZM20.8213 17.4219L20.0473 18.0551C20.2483 18.3008 20.3561 18.4341 20.425 18.536C20.4853 18.6251 20.4604 18.6123 20.449 18.5464L21.4346 18.377L22.4201 18.2075C22.3641 17.8818 22.2221 17.6231 22.0816 17.4155C21.9498 17.2206 21.7733 17.0062 21.5953 16.7887L20.8213 17.4219ZM21.4346 18.377L20.449 18.5462L20.4492 18.5462L21.4131 18.8125L22.377 19.0788C22.4556 18.7943 22.4698 18.4968 22.4201 18.2077L21.4346 18.377ZM21.4131 18.8125L20.4493 18.5459C20.4672 18.481 20.4935 18.4705 20.4246 18.5532C20.3458 18.6478 20.2254 18.7695 20.0008 18.9942L20.708 19.7012L21.4152 20.4082C21.6136 20.2098 21.8106 20.0141 21.961 19.8336C22.1213 19.6413 22.2887 19.398 22.3769 19.0791L21.4131 18.8125ZM20.708 19.7012L20.0006 18.9944L18.9957 20.0003L19.7031 20.707L20.4106 21.4138L21.4155 20.4079L20.708 19.7012ZM19.7031 20.707L18.9959 20C18.7712 20.2248 18.6493 20.3454 18.5546 20.4244C18.4717 20.4934 18.4821 20.4672 18.5469 20.4493L18.8135 21.4131L19.08 22.3769C19.3991 22.2887 19.6426 22.1212 19.8351 21.9607C20.0159 21.81 20.2117 21.6128 20.4103 21.414L19.7031 20.707ZM18.8135 21.4131L18.5471 20.4492L18.5469 20.449L18.3779 21.4346L18.2089 22.4202C18.4976 22.4697 18.7951 22.4557 19.0799 22.3769L18.8135 21.4131ZM18.3779 21.4346L18.5471 20.449C18.6132 20.4603 18.626 20.4853 18.537 20.425C18.4351 20.3561 18.3019 20.2484 18.0561 20.0473L17.4229 20.8213L16.7896 21.5953C17.0071 21.7732 17.2215 21.9498 17.4164 22.0816C17.6241 22.2221 17.8828 22.3642 18.2088 22.4202L18.3779 21.4346ZM17.4229 20.8213L18.0561 20.0473C17.6347 19.7026 17.2567 19.3915 16.9324 19.179C16.6161 18.9718 16.1743 18.7347 15.6386 18.7719L15.708 19.7695L15.7774 20.7671C15.6376 20.7768 15.6138 20.7061 15.8362 20.8518C16.0506 20.9923 16.3321 21.2209 16.7896 21.5953L17.4229 20.8213ZM15.708 19.7695L15.638 18.772C15.2038 18.8025 14.7927 18.9741 14.4662 19.2579L15.1221 20.0127L15.778 20.7675L15.7781 20.7671L15.708 19.7695ZM15.1221 20.0127L14.4661 19.2579C14.0608 19.6102 13.9159 20.0897 13.8387 20.4601C13.7596 20.8396 13.7123 21.3267 13.6583 21.8685L14.6533 21.9678L15.6484 22.0671C15.7071 21.4789 15.7444 21.1186 15.7966 20.8682C15.8507 20.6086 15.8837 20.6756 15.7781 20.7674L15.1221 20.0127ZM14.6533 21.9678L13.6583 21.8685C13.6268 22.1838 13.6086 22.3544 13.5852 22.4748C13.5648 22.5803 13.5561 22.5543 13.5944 22.5002L14.4111 23.0771L15.2279 23.6541C15.4182 23.3847 15.5009 23.1018 15.5487 22.8554C15.5936 22.6239 15.6204 22.3474 15.6484 22.0671L14.6533 21.9678ZM14.4111 23.0771L13.5946 22.4998L13.5949 22.5001L14.0879 23.3701L14.5809 24.2401C14.8385 24.0941 15.0587 23.8934 15.2277 23.6545L14.4111 23.0771ZM14.0879 23.3701L13.5949 22.5001C13.6533 22.467 13.6791 22.4782 13.5722 22.4879C13.4497 22.4991 13.2785 22.5 12.9609 22.5V23.5V24.5C13.2417 24.5 13.5193 24.501 13.7535 24.4797C14.003 24.457 14.2932 24.4032 14.5809 24.2401L14.0879 23.3701ZM12.9609 23.5V22.5H11.5391V23.5V24.5H12.9609V23.5ZM11.5391 23.5V22.5C11.2217 22.5 11.0504 22.499 10.928 22.4879C10.821 22.4781 10.8465 22.4669 10.9046 22.4998L10.4121 23.3701L9.91957 24.2404C10.207 24.4031 10.4969 24.4569 10.7465 24.4796C10.9806 24.5009 11.2582 24.5 11.5391 24.5V23.5ZM10.4121 23.3701L10.9053 22.5002C10.905 22.5 10.9045 22.4997 10.9041 22.4993C10.9036 22.4989 10.9037 22.4989 10.9043 22.4997L10.0879 23.0771L9.27146 23.6546C9.44209 23.8958 9.66418 24.0956 9.91897 24.2401L10.4121 23.3701ZM10.0879 23.0771L10.9047 22.5003C10.9437 22.5555 10.9351 22.5825 10.9147 22.4763C10.8914 22.355 10.8734 22.1844 10.8417 21.868L9.84668 21.9678L8.85167 22.0675C8.87965 22.3467 8.90629 22.6232 8.95065 22.8539C8.9979 23.0996 9.08006 23.3836 9.27105 23.654L10.0879 23.0771ZM9.84668 21.9678L10.8417 21.868C10.7874 21.3262 10.7399 20.8392 10.6606 20.4596C10.5832 20.0893 10.438 19.6098 10.0327 19.2577L9.37695 20.0127L8.72117 20.7676C8.61554 20.6759 8.64859 20.609 8.70285 20.8687C8.75519 21.1192 8.79273 21.4795 8.85167 22.0675L9.84668 21.9678ZM9.37695 20.0127L10.0327 19.2577C9.70414 18.9723 9.29249 18.8032 8.86091 18.773L8.79102 19.7705L8.72112 20.7681L8.72121 20.7677L9.37695 20.0127ZM8.79102 19.7705L8.86082 18.7729C8.32526 18.7355 7.88366 18.9721 7.56719 19.1793C7.24294 19.3917 6.86511 19.7027 6.44384 20.0474L7.07715 20.8213L7.71045 21.5952C8.16784 21.2209 8.44898 20.9926 8.66301 20.8524C8.88483 20.7071 8.86083 20.7778 8.72121 20.7681L8.79102 19.7705ZM7.07715 20.8213L6.44384 20.0474C6.19824 20.2484 6.06496 20.3561 5.96314 20.425C5.87406 20.4852 5.88675 20.4604 5.95257 20.449L6.12207 21.4346L6.29157 22.4201C6.61718 22.3641 6.8758 22.2222 7.08352 22.0817C7.27849 21.9498 7.49285 21.7733 7.71045 21.5952L7.07715 20.8213ZM6.12207 21.4346L5.9529 20.449L5.95277 20.4492L5.68652 21.4131L5.42028 22.377C5.70475 22.4556 6.00224 22.4698 6.29124 22.4202L6.12207 21.4346ZM5.68652 21.4131L5.95317 20.4493C6.01821 20.4673 6.02855 20.4936 5.94543 20.4243C5.85064 20.3453 5.72863 20.2246 5.50398 19.9999L4.79688 20.707L4.08977 21.4141C4.28837 21.6127 4.48415 21.8099 4.66486 21.9606C4.85723 22.1209 5.10077 22.2886 5.41988 22.3769L5.68652 21.4131ZM4.79688 20.707L5.50398 19.9999L4.50008 18.996L3.79297 19.7031L3.08586 20.4102L4.08977 21.4141L4.79688 20.707ZM3.79297 19.7031L4.50008 18.996C4.27526 18.7712 4.15461 18.6493 4.07562 18.5545C4.00646 18.4716 4.03278 18.482 4.05076 18.547L3.08691 18.8135L2.12307 19.0799C2.21132 19.3992 2.37897 19.6427 2.53941 19.8352C2.69002 20.0158 2.88726 20.2116 3.08586 20.4102L3.79297 19.7031ZM3.08691 18.8135L4.05078 18.5471L4.05105 18.5469L3.06543 18.3779L2.07981 18.2089C2.03032 18.4976 2.04435 18.7951 2.12305 19.0799L3.08691 18.8135ZM3.06543 18.3779L4.05104 18.547C4.03969 18.6132 4.01464 18.6261 4.07489 18.5371C4.14385 18.4352 4.25157 18.302 4.45278 18.056L3.67871 17.4229L2.90464 16.7897C2.72678 17.0072 2.55015 17.2216 2.41838 17.4164C2.2779 17.624 2.13575 17.8828 2.07982 18.2089L3.06543 18.3779ZM3.67871 17.4229L4.45278 18.056C4.79759 17.6344 5.10842 17.2563 5.32078 16.9318C5.52793 16.6153 5.76435 16.1737 5.72708 15.6385L4.72949 15.708L3.73191 15.7775C3.7222 15.6381 3.79269 15.6145 3.64729 15.8367C3.5071 16.0509 3.27875 16.3323 2.90464 16.7897L3.67871 17.4229ZM4.72949 15.708L5.72704 15.638C5.69685 15.208 5.52889 14.795 5.24196 14.465L4.4873 15.1211L3.73264 15.7772C3.73058 15.7748 3.73173 15.7749 3.73195 15.778L4.72949 15.708ZM4.4873 15.1211L5.24187 14.4649C4.88922 14.0594 4.40889 13.9149 4.03897 13.8381C3.65973 13.7593 3.17269 13.7123 2.63155 13.6583L2.53223 14.6533L2.43291 15.6484C3.02117 15.7071 3.38146 15.7442 3.63231 15.7963C3.89249 15.8503 3.825 15.8834 3.73274 15.7773L4.4873 15.1211ZM2.53223 14.6533L2.63155 13.6583C2.3155 13.6267 2.14495 13.6087 2.02393 13.5855C1.91793 13.5651 1.94473 13.5564 1.99968 13.5952L1.42285 14.4121L0.846026 15.229C1.11628 15.4198 1.4 15.5021 1.64597 15.5494C1.87693 15.5939 2.15342 15.6205 2.43291 15.6484L2.53223 14.6533ZM1.42285 14.4121L1.99977 13.5953L1.99991 13.5949L1.12988 14.0879L0.259852 14.5809C0.404269 14.8358 0.603736 15.0578 0.845931 15.2289L1.42285 14.4121ZM1.12988 14.0879L1.99994 13.5949C2.033 13.6533 2.02185 13.6791 2.0121 13.5721C2.00096 13.4497 2 13.2785 2 12.9609H1H0C0 13.2417 -0.000972509 13.5194 0.020342 13.7535C0.0430627 14.003 0.096849 14.2932 0.259822 14.5808L1.12988 14.0879ZM1 12.9609H2V11.5391H1H0V12.9609H1ZM1 11.5391H2C2 11.2216 2.00097 11.0503 2.01212 10.9279C2.02186 10.8209 2.03302 10.8466 2.00004 10.9049L1.12988 10.4121L0.259728 9.91933C0.0968748 10.2069 0.04309 10.4969 0.0203612 10.7465C-0.000961185 10.9806 0 11.2582 0 11.5391H1ZM1.12988 10.4121L1.99989 10.9052L2.00003 10.9045L1.42285 10.0879L0.845669 9.27128C0.603957 9.44212 0.40432 9.66419 0.259878 9.91907L1.12988 10.4121ZM1.42285 10.0879L1.99969 10.9047C1.94487 10.9435 1.91805 10.9349 2.02371 10.9146C2.14454 10.8913 2.31482 10.8733 2.63077 10.8417L2.53125 9.84668L2.43173 8.85164C2.15247 8.87958 1.87617 8.90621 1.64542 8.95066C1.39949 8.99803 1.11608 9.08032 0.84601 9.27103L1.42285 10.0879ZM2.53125 9.84668L2.63077 10.8417C3.17233 10.7875 3.65958 10.7403 4.0391 10.6613C4.40922 10.5842 4.88948 10.4395 5.242 10.034L4.4873 9.37793L3.73261 8.72185C3.82469 8.61594 3.89186 8.64907 3.63154 8.70325C3.3806 8.75548 3.02004 8.7928 2.43173 8.85164L2.53125 9.84668ZM4.4873 9.37793L5.24226 10.0337C5.52778 9.705 5.69666 9.29316 5.72702 8.86227L4.72949 8.79199L3.73197 8.72171L3.73235 8.72216L4.4873 9.37793ZM4.72949 8.79199L5.72703 8.86215C5.7647 8.32655 5.52826 7.88478 5.32097 7.56808C5.10857 7.24358 4.7976 6.86553 4.4527 6.44394L3.67871 7.07715L2.90473 7.71035C3.27906 8.16792 3.5074 8.44926 3.64756 8.66338C3.79281 8.8853 3.72214 8.86138 3.73196 8.72184L4.72949 8.79199ZM3.67871 7.07715L4.4527 6.44394C4.25154 6.19806 4.14383 6.06485 4.07493 5.963C4.01474 5.87401 4.03968 5.88688 4.05101 5.95284L3.06543 6.12207L2.07985 6.2913C2.1358 6.61715 2.27782 6.87584 2.41833 7.08356C2.55013 7.27842 2.72675 7.4928 2.90473 7.71035L3.67871 7.07715ZM3.06543 6.12207L4.05101 5.95285L4.05081 5.95279L3.08691 5.68652L2.12301 5.42026C2.04443 5.70474 2.03022 6.00222 2.07985 6.29129L3.06543 6.12207ZM3.08691 5.68652L4.05079 5.95288C4.03302 6.01718 4.00707 6.02733 4.07579 5.94475C4.15437 5.85029 4.27479 5.72836 4.49921 5.50387L3.79199 4.79688L3.08478 4.08988C2.88592 4.2888 2.68891 4.48461 2.53834 4.66559C2.37789 4.85843 2.21104 5.10171 2.12304 5.42017L3.08691 5.68652ZM3.79199 4.79688L4.4991 5.50398L5.50398 4.4991L4.79688 3.79199L4.08977 3.08489L3.08489 4.08977L3.79199 4.79688ZM4.79688 3.79199L5.50409 4.49899C5.72872 4.27429 5.85069 4.15364 5.94538 4.07471C6.02833 4.00558 6.01803 4.03179 5.95317 4.04973L5.68652 3.08594L5.41987 2.12214C5.10088 2.2104 4.85741 2.37792 4.66489 2.53837C4.48413 2.68904 4.28834 2.88625 4.08966 3.08499L4.79688 3.79199ZM5.68652 3.08594L5.95295 4.04979L5.95309 4.05007L6.12207 3.06445L6.29105 2.07883C6.00243 2.02935 5.70492 2.04335 5.4201 2.12208L5.68652 3.08594ZM6.12207 3.06445L5.95284 4.05003C5.88678 4.03869 5.87393 4.01373 5.96304 4.074C6.06492 4.14291 6.19817 4.25065 6.44394 4.45172L7.07715 3.67773L7.71035 2.90375C7.49284 2.7258 7.27846 2.5492 7.08358 2.41738C6.87593 2.27692 6.61718 2.13483 6.2913 2.07888L6.12207 3.06445ZM7.07715 3.67773L6.44394 4.45172C6.86548 4.79658 7.24352 5.10747 7.56809 5.31988C7.88469 5.52707 8.32643 5.76355 8.86181 5.72608L8.79199 4.72852L8.72218 3.73096C8.86169 3.72119 8.88543 3.79177 8.66327 3.64639C8.4491 3.50623 8.16765 3.27787 7.71035 2.90375L7.07715 3.67773ZM8.79199 4.72852L8.86224 5.72605C9.29309 5.6957 9.70494 5.52699 10.0339 5.24113L9.37793 4.48633L8.72198 3.73153L8.72175 3.73099L8.79199 4.72852ZM9.37793 4.48633L10.0339 5.24108C10.4393 4.88873 10.5841 4.40879 10.6612 4.03868C10.7403 3.65929 10.7875 3.17224 10.8417 2.63079L9.84668 2.53125L8.85165 2.43171C8.79281 3.01983 8.75548 3.38015 8.70326 3.63082C8.64911 3.89077 8.61605 3.82359 8.72191 3.73158L9.37793 4.48633ZM9.84668 2.53125L10.8417 2.63079C10.8733 2.31475 10.8913 2.14448 10.9146 2.02365C10.9349 1.91802 10.9434 1.94491 10.9047 1.99978L10.0879 1.42285L9.2711 0.845925C9.08032 1.11602 8.99803 1.39945 8.95066 1.6454C8.90622 1.87613 8.87958 2.15245 8.85165 2.43171L9.84668 2.53125ZM10.0879 1.42285L10.9046 1.99986L10.905 2L10.4121 1.12988L9.91927 0.259764C9.66408 0.404303 9.44211 0.603863 9.27115 0.845845L10.0879 1.42285ZM10.4121 1.12988L10.9049 2C10.8467 2.03301 10.8209 2.02186 10.9279 2.01212C11.0503 2.00096 11.2215 2 11.5391 2V1V0C11.2582 0 10.9806 -0.00096333 10.7465 0.0203579C10.4969 0.043086 10.2069 0.096874 9.91927 0.259762L10.4121 1.12988ZM11.5391 1V2H12.9609V1V0H11.5391V1ZM12.25 7.75V6.75C9.21243 6.75 6.75 9.21243 6.75 12.25H7.75H8.75C8.75 10.317 10.317 8.75 12.25 8.75V7.75ZM7.75 12.25H6.75C6.75 15.2876 9.21243 17.75 12.25 17.75V16.75V15.75C10.317 15.75 8.75 14.183 8.75 12.25H7.75ZM12.25 16.75V17.75C15.2876 17.75 17.75 15.2876 17.75 12.25H16.75H15.75C15.75 14.183 14.183 15.75 12.25 15.75V16.75ZM16.75 12.25H17.75C17.75 9.21243 15.2876 6.75 12.25 6.75V7.75V8.75C14.183 8.75 15.75 10.317 15.75 12.25H16.75Z" fill="white"/>
</svg>
